{
  "accessors": [
    {
      "bufferView": 2,
      "componentType": 5126,
      "count": 1784,
      "max": [
        5.3973917961120605,
        5.3973917961120605,
        4.527559757232666
      ],
      "min": [
        -5.3973917961120605,
        -5.3973917961120605,
        -0.09822705388069153
      ],
      "type": "VEC3"
    },
    {
      "bufferView": 2,
      "byteOffset": 21408,
      "componentType": 5126,
      "count": 1784,
      "max": [
        1.0,
        1.0,
        1.0
      ],
      "min": [
        -1.0,
        -1.0,
        -1.0
      ],
      "type": "VEC3"
    },
    {
      "bufferView": 3,
      "componentType": 5126,
      "count": 1784,
      "max": [
        1.0,
        1.0,
        0.9878097176551819,
        1.0
      ],
      "min": [
        -0.9999998807907104,
        -1.0,
        -0.9999992251396179,
        1.0
      ],
      "type": "VEC4"
    },
    {
      "bufferView": 1,
      "componentType": 5126,
      "count": 1784,
      "max": [
        0.9183003902435303,
        0.9914040565490723
      ],
      "min": [
        0.006063622422516346,
        0.008367996662855148
      ],
      "type": "VEC2"
    },
    {
      "bufferView": 1,
      "byteOffset": 14272,
      "componentType": 5126,
      "count": 1784,
      "max": [
        0.9183003902435303,
        0.9914040565490723
      ],
      "min": [
        0.006063622422516346,
        0.008367996662855148
      ],
      "type": "VEC2"
    },
    {
      "bufferView": 1,
      "byteOffset": 28544,
      "componentType": 5126,
      "count": 1784,
      "max": [
        0.9183003902435303,
        0.9914040565490723
      ],
      "min": [
        0.006063622422516346,
        0.008367996662855148
      ],
      "type": "VEC2"
    },
    {
      "bufferView": 0,
      "componentType": 5125,
      "count": 8352,
      "type": "SCALAR"
    }
  ],
  "asset": {
    "extras": {
      "author": "plaggy (https://sketchfab.com/plaggy)",
      "license": "SKETCHFAB Standard (https://sketchfab.com/licenses)",
      "source": "https://sketchfab.com/3d-models/plastic-wash-basin-37c1b342258648029e65936b79f6269f",
      "title": "Plastic Wash Basin"
    },
    "generator": "Sketchfab-11.53.2",
    "version": "2.0"
  },
  "bufferViews": [
    {
      "buffer": 0,
      "byteLength": 33408,
      "name": "floatBufferViews",
      "target": 34963
    },
    {
      "buffer": 0,
      "byteLength": 42816,
      "byteOffset": 33408,
      "byteStride": 8,
      "name": "floatBufferViews",
      "target": 34962
    },
    {
      "buffer": 0,
      "byteLength": 42816,
      "byteOffset": 76224,
      "byteStride": 12,
      "name": "floatBufferViews",
      "target": 34962
    },
    {
      "buffer": 0,
      "byteLength": 28544,
      "byteOffset": 119040,
      "byteStride": 16,
      "name": "floatBufferViews",
      "target": 34962
    }
  ],
  "buffers": [
    {
      "byteLength": 147584,
      "uri": "scene.bin"
    }
  ],
  "images": [
    {
      "uri": "textures/PlasticWashBasin_baseColor.png"
    },
    {
      "uri": "textures/PlasticWashBasin_metallicRoughness.png"
    },
    {
      "uri": "textures/PlasticWashBasin_normal.png"
    }
  ],
  "materials": [
    {
      "name": "PlasticWashBasin",
      "normalTexture": {
        "index": 2
      },
      "occlusionTexture": {
        "index": 1
      },
      "pbrMetallicRoughness": {
        "baseColorTexture": {
          "index": 0
        },
        "metallicRoughnessTexture": {
          "index": 1
        }
      }
    }
  ],
  "meshes": [
    {
      "name": "Plastic Wash Basin_PlasticWashBasin_0",
      "primitives": [
        {
          "attributes": {
            "NORMAL": 1,
            "POSITION": 0,
            "TANGENT": 2,
            "TEXCOORD_0": 3,
            "TEXCOORD_1": 4,
            "TEXCOORD_2": 5
          },
          "indices": 6,
          "material": 0,
          "mode": 4
        }
      ]
    }
  ],
  "nodes": [
    {
      "children": [
        1
      ],
      "matrix": [
        1.0,
        0.0,
        0.0,
        0.0,
        0.0,
        2.220446049250313e-16,
        -1.0,
        0.0,
        0.0,
        1.0,
        2.220446049250313e-16,
        0.0,
        0.0,
        0.0,
        0.0,
        1.0
      ],
      "name": "Sketchfab_model"
    },
    {
      "children": [
        2
      ],
      "matrix": [
        0.02539999969303608,
        0.0,
        0.0,
        0.0,
        0.0,
        0.0,
        0.02539999969303608,
        0.0,
        0.0,
        -0.02539999969303608,
        0.0,
        0.0,
        0.0,
        0.0,
        0.0,
        1.0
      ],
      "name": "628b75ccd73847b2b405ecf99bfd2297.fbx"
    },
    {
      "children": [
        3
      ],
      "name": "RootNode"
    },
    {
      "children": [
        4
      ],
      "matrix": [
        1.0,
        0.0,
        0.0,
        0.0,
        0.0,
        2.220446049250313e-16,
        -1.0,
        0.0,
        0.0,
        1.0,
        2.220446049250313e-16,
        0.0,
        0.0,
        0.0,
        0.0,
        1.0
      ],
      "name": "Plastic Wash Basin"
    },
    {
      "children": [
        5
      ],
      "matrix": [
        1.0,
        0.0,
        -0.0,
        0.0,
        0.0,
        1.0,
        0.0,
        0.0,
        0.0,
        0.0,
        1.0,
        0.0,
        0.0,
        0.0,
        -2.2146663665771484,
        1.0
      ],
      "name": "Object_4"
    },
    {
      "mesh": 0,
      "name": "Plastic Wash Basin_PlasticWashBasin_0"
    }
  ],
  "samplers": [
    {
      "magFilter": 9729,
      "minFilter": 9987,
      "wrapS": 10497,
      "wrapT": 10497
    }
  ],
  "scene": 0,
  "scenes": [
    {
      "name": "Sketchfab_Scene",
      "nodes": [
        0
      ]
    }
  ],
  "textures": [
    {
      "sampler": 0,
      "source": 0
    },
    {
      "sampler": 0,
      "source": 1
    },
    {
      "sampler": 0,
      "source": 2
    }
  ]
}
